ffmpeg started on 2026-01-13 at 12:08:17
Report written to "D:\Convert\FFMetrics\reports\ssim_report-6.txt"
Log level: 32
Command line:
ffmpeg -hide_banner -nostdin -r 24000/1001 -i "F:\\Convert\\files\\[DC] Make Heroine ga Oosugiru - 07_Telegram_HEVC(89).mkv" -r 24000/1001 -i "F:\\Convert\\files\\[DC] Make Heroine ga Oosugiru - 07_Telegram.mp4" -lavfi "[0:v]settb=AVTB,setpts=PTS-STARTPTS,format=pix_fmts=yuv420p10le,fps=24000/1001,scale=1920:1080:flags=lanczos:param0=3:out_range=limited:out_color_matrix=bt709:out_chroma_loc=left,setsar=1/1,setdar=(1920/1080)*(1/1),colorspace=format=yuv420p10:range=tv:primaries=bt709:trc=bt709:space=bt709:fast=0[main];[1:v]settb=AVTB,setpts=PTS-STARTPTS,format=pix_fmts=yuv420p,fps=24000/1001,scale=1920:1080:flags=lanczos:param0=3:out_range=limited:out_color_matrix=bt709:out_chroma_loc=left,setsar=1.000,setdar=1.778,colorspace=format=yuv420p:range=tv:primaries=bt709:trc=bt709:space=bt709:fast=0[ref];[main][ref]ssim=eof_action=endall:stats_file='D\\:/Convert/FFMetrics/logs/ssim_logfile-6.txt'" -f null -
Input #0, matroska,webm, from 'F:\Convert\files\[DC] Make Heroine ga Oosugiru - 07_Telegram_HEVC(89).mkv':
  Metadata:
    COMPATIBLE_BRANDS: isomiso2avc1mp41
    MAJOR_BRAND     : isom
    MINOR_VERSION   : 512
    ENCODER         : Lavf61.7.100
  Duration: 00:24:06.79, start: -0.021000, bitrate: 968 kb/s
  Stream #0:0: Video: hevc (Main 10), yuv420p10le(tv, bt709, progressive), 1920x1080 [SAR 1:1 DAR 16:9], 23.98 fps, 23.98 tbr, 1k tbn (default)
      Metadata:
        HANDLER_NAME    : VideoHandler
        VENDOR_ID       : [0][0][0][0]
        ENCODER         : Lavc61.19.100 libx265
        BPS             : 771730
        DURATION        : 00:24:06.569708333
        NUMBER_OF_FRAMES: 34683
        NUMBER_OF_BYTES : 139545262
        _STATISTICS_WRITING_APP: mkvpropedit v94.0 ('Initiate') 64-bit
        _STATISTICS_WRITING_DATE_UTC: 2026-01-11 17:38:57
        _STATISTICS_TAGS: BPS DURATION NUMBER_OF_FRAMES NUMBER_OF_BYTES
  Stream #0:1: Audio: aac (LC), 48000 Hz, stereo, fltp (default)
      Metadata:
        HANDLER_NAME    : SoundHandler
        VENDOR_ID       : [0][0][0][0]
        ENCODER         : Lavc61.19.100 aac
        BPS             : 193194
        DURATION        : 00:24:06.784000000
        NUMBER_OF_FRAMES: 67819
        NUMBER_OF_BYTES : 34938755
        _STATISTICS_WRITING_APP: mkvpropedit v94.0 ('Initiate') 64-bit
        _STATISTICS_WRITING_DATE_UTC: 2026-01-11 17:38:57
        _STATISTICS_TAGS: BPS DURATION NUMBER_OF_FRAMES NUMBER_OF_BYTES
Input #1, mov,mp4,m4a,3gp,3g2,mj2, from 'F:\Convert\files\[DC] Make Heroine ga Oosugiru - 07_Telegram.mp4':
  Metadata:
    major_brand     : isom
    minor_version   : 512
    compatible_brands: isomiso2avc1mp41
    encoder         : Lavf60.16.100
  Duration: 00:24:06.74, start: 0.000000, bitrate: 3764 kb/s
  Stream #1:0[0x1](und): Video: h264 (High) (avc1 / 0x31637661), yuv420p(tv, bt709, progressive), 1920x1080 [SAR 1:1 DAR 16:9], 3616 kb/s, 23.98 fps, 23.98 tbr, 24k tbn (default)
      Metadata:
        handler_name    : VideoHandler
        vendor_id       : [0][0][0][0]
        encoder         : Lavc60.31.102 h264_qsv
  Stream #1:1[0x2](und): Audio: aac (HE-AACv2) (mp4a / 0x6134706D), 48000 Hz, stereo, fltp, 144 kb/s (default)
      Metadata:
        handler_name    : SoundHandler
        vendor_id       : [0][0][0][0]
Stream mapping:
  Stream #0:0 (hevc) -> settb:default
  Stream #1:0 (h264) -> settb:default
  ssim:default -> Stream #0:0 (wrapped_avframe)
  Stream #0:1 -> #0:1 (aac (native) -> pcm_s16le (native))
Output #0, null, to 'pipe:':
  Metadata:
    COMPATIBLE_BRANDS: isomiso2avc1mp41
    MAJOR_BRAND     : isom
    MINOR_VERSION   : 512
    encoder         : Lavf61.7.100
  Stream #0:0: Video: wrapped_avframe, yuv420p10le(tv, bt709, progressive), 1920x1080 [SAR 1:1 DAR 16:9], q=2-31, 200 kb/s, 23.98 fps, 23.98 tbn
      Metadata:
        encoder         : Lavc61.19.100 wrapped_avframe
  Stream #0:1: Audio: pcm_s16le, 48000 Hz, stereo, s16, 1536 kb/s (default)
      Metadata:
        HANDLER_NAME    : SoundHandler
        VENDOR_ID       : [0][0][0][0]
        _STATISTICS_TAGS: BPS DURATION NUMBER_OF_FRAMES NUMBER_OF_BYTES
        BPS             : 193194
        DURATION        : 00:24:06.784000000
        NUMBER_OF_FRAMES: 67819
        NUMBER_OF_BYTES : 34938755
        _STATISTICS_WRITING_APP: mkvpropedit v94.0 ('Initiate') 64-bit
        _STATISTICS_WRITING_DATE_UTC: 2026-01-11 17:38:57
        encoder         : Lavc61.19.100 pcm_s16le
frame=  132 fps=0.0 q=-0.0 size=N/A time=00:00:05.50 bitrate=N/A speed=10.6x    frame=  316 fps=306 q=-0.0 size=N/A time=00:00:13.17 bitrate=N/A speed=12.8x    frame=  476 fps=305 q=-0.0 size=N/A time=00:00:19.85 bitrate=N/A speed=12.7x    frame=  636 fps=308 q=-0.0 size=N/A time=00:00:26.52 bitrate=N/A speed=12.8x    frame=  821 fps=318 q=-0.0 size=N/A time=00:00:34.24 bitrate=N/A speed=13.3x    frame=  978 fps=315 q=-0.0 size=N/A time=00:00:40.79 bitrate=N/A speed=13.2x    frame= 1131 fps=313 q=-0.0 size=N/A time=00:00:47.17 bitrate=N/A speed=13.1x    frame= 1294 fps=314 q=-0.0 size=N/A time=00:00:53.97 bitrate=N/A speed=13.1x    frame= 1455 fps=313 q=-0.0 size=N/A time=00:01:00.68 bitrate=N/A speed=  13x    frame= 1598 fps=309 q=-0.0 size=N/A time=00:01:06.64 bitrate=N/A speed=12.9x    frame= 1732 fps=305 q=-0.0 size=N/A time=00:01:12.23 bitrate=N/A speed=12.7x    frame= 1902 fps=307 q=-0.0 size=N/A time=00:01:19.32 bitrate=N/A speed=12.8x    frame= 2054 fps=306 q=-0.0 size=N/A time=00:01:25.66 bitrate=N/A speed=12.8x    frame= 2172 fps=301 q=-0.0 size=N/A time=00:01:30.59 bitrate=N/A speed=12.5x    frame= 2326 fps=301 q=-0.0 size=N/A time=00:01:37.01 bitrate=N/A speed=12.5x    frame= 2469 fps=299 q=-0.0 size=N/A time=00:01:42.97 bitrate=N/A speed=12.5x    frame= 2582 fps=294 q=-0.0 size=N/A time=00:01:47.69 bitrate=N/A speed=12.3x    frame= 2762 fps=297 q=-0.0 size=N/A time=00:01:55.19 bitrate=N/A speed=12.4x    frame= 2932 fps=299 q=-0.0 size=N/A time=00:02:02.28 bitrate=N/A speed=12.5x    frame= 3121 fps=303 q=-0.0 size=N/A time=00:02:10.17 bitrate=N/A speed=12.6x    frame= 3308 fps=305 q=-0.0 size=N/A time=00:02:17.97 bitrate=N/A speed=12.7x    frame= 3500 fps=308 q=-0.0 size=N/A time=00:02:25.97 bitrate=N/A speed=12.9x    frame= 3686 fps=311 q=-0.0 size=N/A time=00:02:33.73 bitrate=N/A speed=  13x    frame= 3869 fps=312 q=-0.0 size=N/A time=00:02:41.36 bitrate=N/A speed=  13x    frame= 4034 fps=313 q=-0.0 size=N/A time=00:02:48.25 bitrate=N/A speed=  13x    frame= 4226 fps=315 q=-0.0 size=N/A time=00:02:56.25 bitrate=N/A speed=13.1x    frame= 4411 fps=317 q=-0.0 size=N/A time=00:03:03.97 bitrate=N/A speed=13.2x    frame= 4602 fps=318 q=-0.0 size=N/A time=00:03:11.94 bitrate=N/A speed=13.3x    frame= 4797 fps=321 q=-0.0 size=N/A time=00:03:20.07 bitrate=N/A speed=13.4x    frame= 4962 fps=320 q=-0.0 size=N/A time=00:03:26.95 bitrate=N/A speed=13.4x    frame= 5126 fps=320 q=-0.0 size=N/A time=00:03:33.79 bitrate=N/A speed=13.4x    frame= 5312 fps=322 q=-0.0 size=N/A time=00:03:41.55 bitrate=N/A speed=13.4x    frame= 5500 fps=323 q=-0.0 size=N/A time=00:03:49.39 bitrate=N/A speed=13.5x    frame= 5692 fps=324 q=-0.0 size=N/A time=00:03:57.40 bitrate=N/A speed=13.5x    frame= 5887 fps=326 q=-0.0 size=N/A time=00:04:05.53 bitrate=N/A speed=13.6x    frame= 6065 fps=326 q=-0.0 size=N/A time=00:04:12.96 bitrate=N/A speed=13.6x    frame= 6264 fps=328 q=-0.0 size=N/A time=00:04:21.26 bitrate=N/A speed=13.7x    frame= 6426 fps=328 q=-0.0 size=N/A time=00:04:28.01 bitrate=N/A speed=13.7x    frame= 6614 fps=329 q=-0.0 size=N/A time=00:04:35.85 bitrate=N/A speed=13.7x    frame= 6798 fps=329 q=-0.0 size=N/A time=00:04:43.53 bitrate=N/A speed=13.7x    frame= 6984 fps=330 q=-0.0 size=N/A time=00:04:51.29 bitrate=N/A speed=13.8x    frame= 7177 fps=331 q=-0.0 size=N/A time=00:04:59.34 bitrate=N/A speed=13.8x    frame= 7365 fps=332 q=-0.0 size=N/A time=00:05:07.18 bitrate=N/A speed=13.8x    frame= 7510 fps=331 q=-0.0 size=N/A time=00:05:13.22 bitrate=N/A speed=13.8x    frame= 7691 fps=331 q=-0.0 size=N/A time=00:05:20.77 bitrate=N/A speed=13.8x    frame= 7826 fps=330 q=-0.0 size=N/A time=00:05:26.40 bitrate=N/A speed=13.7x    frame= 8012 fps=330 q=-0.0 size=N/A time=00:05:34.16 bitrate=N/A speed=13.8x    frame= 8192 fps=330 q=-0.0 size=N/A time=00:05:41.67 bitrate=N/A speed=13.8x    frame= 8379 fps=331 q=-0.0 size=N/A time=00:05:49.47 bitrate=N/A speed=13.8x    frame= 8560 fps=331 q=-0.0 size=N/A time=00:05:57.02 bitrate=N/A speed=13.8x    frame= 8744 fps=332 q=-0.0 size=N/A time=00:06:04.69 bitrate=N/A speed=13.8x    frame= 8927 fps=332 q=-0.0 size=N/A time=00:06:12.33 bitrate=N/A speed=13.9x    frame= 9111 fps=333 q=-0.0 size=N/A time=00:06:20.00 bitrate=N/A speed=13.9x    frame= 9309 fps=334 q=-0.0 size=N/A time=00:06:28.26 bitrate=N/A speed=13.9x    frame= 9503 fps=334 q=-0.0 size=N/A time=00:06:36.35 bitrate=N/A speed=13.9x    frame= 9690 fps=335 q=-0.0 size=N/A time=00:06:44.15 bitrate=N/A speed=  14x    frame= 9854 fps=335 q=-0.0 size=N/A time=00:06:50.99 bitrate=N/A speed=  14x    frame= 9998 fps=334 q=-0.0 size=N/A time=00:06:56.99 bitrate=N/A speed=13.9x    frame=10170 fps=334 q=-0.0 size=N/A time=00:07:04.17 bitrate=N/A speed=13.9x    frame=10355 fps=334 q=-0.0 size=N/A time=00:07:11.88 bitrate=N/A speed=13.9x    frame=10531 fps=334 q=-0.0 size=N/A time=00:07:19.23 bitrate=N/A speed=13.9x    frame=10714 fps=335 q=-0.0 size=N/A time=00:07:26.86 bitrate=N/A speed=  14x    frame=10903 fps=335 q=-0.0 size=N/A time=00:07:34.74 bitrate=N/A speed=  14x    frame=11089 fps=335 q=-0.0 size=N/A time=00:07:42.50 bitrate=N/A speed=  14x    frame=11257 fps=335 q=-0.0 size=N/A time=00:07:49.51 bitrate=N/A speed=  14x    frame=11450 fps=336 q=-0.0 size=N/A time=00:07:57.56 bitrate=N/A speed=  14x    frame=11645 fps=337 q=-0.0 size=N/A time=00:08:05.69 bitrate=N/A speed=  14x    frame=11834 fps=337 q=-0.0 size=N/A time=00:08:13.57 bitrate=N/A speed=14.1x    frame=12020 fps=337 q=-0.0 size=N/A time=00:08:21.33 bitrate=N/A speed=14.1x    frame=12209 fps=338 q=-0.0 size=N/A time=00:08:29.21 bitrate=N/A speed=14.1x    frame=12368 fps=337 q=-0.0 size=N/A time=00:08:35.84 bitrate=N/A speed=14.1x    frame=12559 fps=338 q=-0.0 size=N/A time=00:08:43.81 bitrate=N/A speed=14.1x    frame=12728 fps=338 q=-0.0 size=N/A time=00:08:50.86 bitrate=N/A speed=14.1x    frame=12916 fps=338 q=-0.0 size=N/A time=00:08:58.70 bitrate=N/A speed=14.1x    frame=13112 fps=338 q=-0.0 size=N/A time=00:09:06.87 bitrate=N/A speed=14.1x    frame=13298 fps=339 q=-0.0 size=N/A time=00:09:14.63 bitrate=N/A speed=14.1x    frame=13478 fps=339 q=-0.0 size=N/A time=00:09:22.14 bitrate=N/A speed=14.1x    frame=13671 fps=339 q=-0.0 size=N/A time=00:09:30.19 bitrate=N/A speed=14.2x    frame=13848 fps=339 q=-0.0 size=N/A time=00:09:37.57 bitrate=N/A speed=14.2x    frame=14034 fps=340 q=-0.0 size=N/A time=00:09:45.33 bitrate=N/A speed=14.2x    frame=14220 fps=340 q=-0.0 size=N/A time=00:09:53.09 bitrate=N/A speed=14.2x    frame=14405 fps=340 q=-0.0 size=N/A time=00:10:00.80 bitrate=N/A speed=14.2x    frame=14592 fps=340 q=-0.0 size=N/A time=00:10:08.60 bitrate=N/A speed=14.2x    frame=14759 fps=340 q=-0.0 size=N/A time=00:10:15.57 bitrate=N/A speed=14.2x    frame=14896 fps=339 q=-0.0 size=N/A time=00:10:21.28 bitrate=N/A speed=14.2x    frame=15068 fps=339 q=-0.0 size=N/A time=00:10:28.46 bitrate=N/A speed=14.2x    frame=15232 fps=339 q=-0.0 size=N/A time=00:10:35.30 bitrate=N/A speed=14.1x    frame=15409 fps=339 q=-0.0 size=N/A time=00:10:42.68 bitrate=N/A speed=14.1x    frame=15609 fps=340 q=-0.0 size=N/A time=00:10:51.02 bitrate=N/A speed=14.2x    frame=15790 fps=340 q=-0.0 size=N/A time=00:10:58.57 bitrate=N/A speed=14.2x    frame=15984 fps=340 q=-0.0 size=N/A time=00:11:06.66 bitrate=N/A speed=14.2x    frame=16169 fps=340 q=-0.0 size=N/A time=00:11:14.38 bitrate=N/A speed=14.2x    frame=16364 fps=341 q=-0.0 size=N/A time=00:11:22.51 bitrate=N/A speed=14.2x    frame=16547 fps=341 q=-0.0 size=N/A time=00:11:30.14 bitrate=N/A speed=14.2x    frame=16737 fps=341 q=-0.0 size=N/A time=00:11:38.07 bitrate=N/A speed=14.2x    frame=16926 fps=341 q=-0.0 size=N/A time=00:11:45.95 bitrate=N/A speed=14.2x    frame=17113 fps=342 q=-0.0 size=N/A time=00:11:53.75 bitrate=N/A speed=14.3x    frame=17269 fps=341 q=-0.0 size=N/A time=00:12:00.26 bitrate=N/A speed=14.2x    frame=17459 fps=342 q=-0.0 size=N/A time=00:12:08.18 bitrate=N/A speed=14.2x    frame=17620 fps=341 q=-0.0 size=N/A time=00:12:14.90 bitrate=N/A speed=14.2x    frame=17802 fps=341 q=-0.0 size=N/A time=00:12:22.49 bitrate=N/A speed=14.2x    frame=17988 fps=342 q=-0.0 size=N/A time=00:12:30.24 bitrate=N/A speed=14.2x    frame=18184 fps=342 q=-0.0 size=N/A time=00:12:38.42 bitrate=N/A speed=14.3x    frame=18358 fps=342 q=-0.0 size=N/A time=00:12:45.68 bitrate=N/A speed=14.3x    frame=18551 fps=342 q=-0.0 size=N/A time=00:12:53.73 bitrate=N/A speed=14.3x    frame=18730 fps=342 q=-0.0 size=N/A time=00:13:01.19 bitrate=N/A speed=14.3x    frame=18917 fps=342 q=-0.0 size=N/A time=00:13:08.99 bitrate=N/A speed=14.3x    frame=19112 fps=343 q=-0.0 size=N/A time=00:13:17.12 bitrate=N/A speed=14.3x    frame=19302 fps=343 q=-0.0 size=N/A time=00:13:25.05 bitrate=N/A speed=14.3x    frame=19492 fps=343 q=-0.0 size=N/A time=00:13:32.97 bitrate=N/A speed=14.3x    frame=19686 fps=343 q=-0.0 size=N/A time=00:13:41.07 bitrate=N/A speed=14.3x    frame=19821 fps=343 q=-0.0 size=N/A time=00:13:46.70 bitrate=N/A speed=14.3x    frame=20008 fps=343 q=-0.0 size=N/A time=00:13:54.50 bitrate=N/A speed=14.3x    frame=20191 fps=343 q=-0.0 size=N/A time=00:14:02.13 bitrate=N/A speed=14.3x    frame=20382 fps=343 q=-0.0 size=N/A time=00:14:10.09 bitrate=N/A speed=14.3x    frame=20558 fps=343 q=-0.0 size=N/A time=00:14:17.43 bitrate=N/A speed=14.3x    frame=20742 fps=343 q=-0.0 size=N/A time=00:14:25.11 bitrate=N/A speed=14.3x    frame=20929 fps=343 q=-0.0 size=N/A time=00:14:32.91 bitrate=N/A speed=14.3x    frame=21108 fps=344 q=-0.0 size=N/A time=00:14:40.37 bitrate=N/A speed=14.3x    frame=21296 fps=344 q=-0.0 size=N/A time=00:14:48.22 bitrate=N/A speed=14.3x    frame=21483 fps=344 q=-0.0 size=N/A time=00:14:56.02 bitrate=N/A speed=14.3x    frame=21676 fps=344 q=-0.0 size=N/A time=00:15:04.06 bitrate=N/A speed=14.4x    frame=21868 fps=344 q=-0.0 size=N/A time=00:15:12.07 bitrate=N/A speed=14.4x    frame=22062 fps=345 q=-0.0 size=N/A time=00:15:20.16 bitrate=N/A speed=14.4x    frame=22217 fps=344 q=-0.0 size=N/A time=00:15:26.63 bitrate=N/A speed=14.4x    frame=22397 fps=344 q=-0.0 size=N/A time=00:15:34.14 bitrate=N/A speed=14.4x    frame=22576 fps=344 q=-0.0 size=N/A time=00:15:41.60 bitrate=N/A speed=14.4x    frame=22760 fps=344 q=-0.0 size=N/A time=00:15:49.28 bitrate=N/A speed=14.4x    frame=22942 fps=345 q=-0.0 size=N/A time=00:15:56.87 bitrate=N/A speed=14.4x    frame=23139 fps=345 q=-0.0 size=N/A time=00:16:05.08 bitrate=N/A speed=14.4x    frame=23319 fps=345 q=-0.0 size=N/A time=00:16:12.59 bitrate=N/A speed=14.4x    frame=23514 fps=345 q=-0.0 size=N/A time=00:16:20.72 bitrate=N/A speed=14.4x    frame=23698 fps=345 q=-0.0 size=N/A time=00:16:28.40 bitrate=N/A speed=14.4x    frame=23894 fps=345 q=-0.0 size=N/A time=00:16:36.57 bitrate=N/A speed=14.4x    frame=24088 fps=346 q=-0.0 size=N/A time=00:16:44.67 bitrate=N/A speed=14.4x    frame=24270 fps=346 q=-0.0 size=N/A time=00:16:52.26 bitrate=N/A speed=14.4x    frame=24461 fps=346 q=-0.0 size=N/A time=00:17:00.22 bitrate=N/A speed=14.4x    frame=24653 fps=346 q=-0.0 size=N/A time=00:17:08.23 bitrate=N/A speed=14.4x    frame=24785 fps=345 q=-0.0 size=N/A time=00:17:13.74 bitrate=N/A speed=14.4x    frame=24973 fps=346 q=-0.0 size=N/A time=00:17:21.58 bitrate=N/A speed=14.4x    frame=25152 fps=346 q=-0.0 size=N/A time=00:17:29.04 bitrate=N/A speed=14.4x    frame=25344 fps=346 q=-0.0 size=N/A time=00:17:37.05 bitrate=N/A speed=14.4x    frame=25534 fps=346 q=-0.0 size=N/A time=00:17:44.98 bitrate=N/A speed=14.4x    frame=25719 fps=346 q=-0.0 size=N/A time=00:17:52.69 bitrate=N/A speed=14.4x    frame=25905 fps=346 q=-0.0 size=N/A time=00:18:00.45 bitrate=N/A speed=14.4x    frame=26101 fps=346 q=-0.0 size=N/A time=00:18:08.62 bitrate=N/A speed=14.4x    frame=26286 fps=346 q=-0.0 size=N/A time=00:18:16.34 bitrate=N/A speed=14.4x    frame=26474 fps=347 q=-0.0 size=N/A time=00:18:24.18 bitrate=N/A speed=14.5x    frame=26665 fps=347 q=-0.0 size=N/A time=00:18:32.15 bitrate=N/A speed=14.5x    frame=26858 fps=347 q=-0.0 size=N/A time=00:18:40.20 bitrate=N/A speed=14.5x    frame=27034 fps=347 q=-0.0 size=N/A time=00:18:47.54 bitrate=N/A speed=14.5x    frame=27188 fps=347 q=-0.0 size=N/A time=00:18:53.96 bitrate=N/A speed=14.5x    frame=27357 fps=346 q=-0.0 size=N/A time=00:19:01.01 bitrate=N/A speed=14.4x    frame=27532 fps=346 q=-0.0 size=N/A time=00:19:08.31 bitrate=N/A speed=14.4x    frame=27718 fps=346 q=-0.0 size=N/A time=00:19:16.07 bitrate=N/A speed=14.4x    frame=27902 fps=347 q=-0.0 size=N/A time=00:19:23.74 bitrate=N/A speed=14.5x    frame=28091 fps=347 q=-0.0 size=N/A time=00:19:31.62 bitrate=N/A speed=14.5x    frame=28269 fps=347 q=-0.0 size=N/A time=00:19:39.05 bitrate=N/A speed=14.5x    frame=28468 fps=347 q=-0.0 size=N/A time=00:19:47.35 bitrate=N/A speed=14.5x    frame=28643 fps=347 q=-0.0 size=N/A time=00:19:54.65 bitrate=N/A speed=14.5x    frame=28820 fps=347 q=-0.0 size=N/A time=00:20:02.03 bitrate=N/A speed=14.5x    frame=28943 fps=346 q=-0.0 size=N/A time=00:20:07.16 bitrate=N/A speed=14.4x    frame=29097 fps=346 q=-0.0 size=N/A time=00:20:13.58 bitrate=N/A speed=14.4x    frame=29269 fps=346 q=-0.0 size=N/A time=00:20:20.76 bitrate=N/A speed=14.4x    frame=29446 fps=346 q=-0.0 size=N/A time=00:20:28.14 bitrate=N/A speed=14.4x    frame=29614 fps=346 q=-0.0 size=N/A time=00:20:35.15 bitrate=N/A speed=14.4x    frame=29799 fps=346 q=-0.0 size=N/A time=00:20:42.86 bitrate=N/A speed=14.4x    frame=29966 fps=346 q=-0.0 size=N/A time=00:20:49.83 bitrate=N/A speed=14.4x    frame=30134 fps=345 q=-0.0 size=N/A time=00:20:56.83 bitrate=N/A speed=14.4x    frame=30311 fps=345 q=-0.0 size=N/A time=00:21:04.22 bitrate=N/A speed=14.4x    frame=30506 fps=346 q=-0.0 size=N/A time=00:21:12.35 bitrate=N/A speed=14.4x    frame=30682 fps=346 q=-0.0 size=N/A time=00:21:19.69 bitrate=N/A speed=14.4x    frame=30870 fps=346 q=-0.0 size=N/A time=00:21:27.53 bitrate=N/A speed=14.4x    frame=31059 fps=346 q=-0.0 size=N/A time=00:21:35.41 bitrate=N/A speed=14.4x    frame=31239 fps=346 q=-0.0 size=N/A time=00:21:42.92 bitrate=N/A speed=14.4x    frame=31390 fps=345 q=-0.0 size=N/A time=00:21:49.22 bitrate=N/A speed=14.4x    frame=31578 fps=346 q=-0.0 size=N/A time=00:21:57.06 bitrate=N/A speed=14.4x    frame=31753 fps=346 q=-0.0 size=N/A time=00:22:04.36 bitrate=N/A speed=14.4x    frame=31929 fps=346 q=-0.0 size=N/A time=00:22:11.70 bitrate=N/A speed=14.4x    frame=32108 fps=346 q=-0.0 size=N/A time=00:22:19.17 bitrate=N/A speed=14.4x    frame=32293 fps=346 q=-0.0 size=N/A time=00:22:26.88 bitrate=N/A speed=14.4x    frame=32482 fps=346 q=-0.0 size=N/A time=00:22:34.77 bitrate=N/A speed=14.4x    frame=32655 fps=346 q=-0.0 size=N/A time=00:22:41.98 bitrate=N/A speed=14.4x    frame=32809 fps=345 q=-0.0 size=N/A time=00:22:48.40 bitrate=N/A speed=14.4x    frame=32982 fps=345 q=-0.0 size=N/A time=00:22:55.62 bitrate=N/A speed=14.4x    frame=33160 fps=345 q=-0.0 size=N/A time=00:23:03.04 bitrate=N/A speed=14.4x    frame=33332 fps=345 q=-0.0 size=N/A time=00:23:10.22 bitrate=N/A speed=14.4x    frame=33496 fps=345 q=-0.0 size=N/A time=00:23:17.06 bitrate=N/A speed=14.4x    frame=33631 fps=345 q=-0.0 size=N/A time=00:23:22.69 bitrate=N/A speed=14.4x    frame=33766 fps=344 q=-0.0 size=N/A time=00:23:28.32 bitrate=N/A speed=14.4x    frame=33890 fps=344 q=-0.0 size=N/A time=00:23:33.49 bitrate=N/A speed=14.3x    frame=34053 fps=344 q=-0.0 size=N/A time=00:23:40.29 bitrate=N/A speed=14.3x    frame=34200 fps=343 q=-0.0 size=N/A time=00:23:46.42 bitrate=N/A speed=14.3x    frame=34340 fps=343 q=-0.0 size=N/A time=00:23:52.26 bitrate=N/A speed=14.3x    frame=34466 fps=342 q=-0.0 size=N/A time=00:23:57.51 bitrate=N/A speed=14.3x    frame=34634 fps=342 q=-0.0 size=N/A time=00:24:04.52 bitrate=N/A speed=14.3x    [Parsed_ssim_16 @ 000001d2ee5bfd80] SSIM Y:0.994217 (22.378475) U:0.994015 (22.229698) V:0.993619 (21.951324) All:0.994084 (22.279573)
[out#0/null @ 000001d2e106fe80] video:14903KiB audio:271276KiB subtitle:0KiB other streams:0KiB global headers:0KiB muxing overhead: unknown
frame=34683 fps=342 q=-0.0 Lsize=N/A time=00:24:06.57 bitrate=N/A speed=14.3x    
